<?xml version="1.0" encoding="UTF-8"?>
<svg id="Layer_1" data-name="Layer 1" xmlns="http://www.w3.org/2000/svg" xmlns:xlink="http://www.w3.org/1999/xlink" viewBox="0 0 622 500">
  <defs>
    <style>
      .cls-1 {
        fill: #fff;
      }

      .cls-2 {
        stroke-width: 2px;
      }

      .cls-2, .cls-3, .cls-4, .cls-5, .cls-6 {
        fill: none;
      }

      .cls-2, .cls-4, .cls-6 {
        stroke-miterlimit: 10;
      }

      .cls-2, .cls-6 {
        stroke: #ccc;
      }

      .cls-3 {
        stroke: #e6e6e6;
        stroke-linecap: round;
        stroke-linejoin: round;
      }

      .cls-4 {
        stroke: #f2f2f2;
        stroke-width: 4px;
      }

      .cls-7 {
        fill: #d0d2d3;
      }

      .cls-8 {
        fill: #e6e6e6;
      }

      .cls-9 {
        fill: #e6e7e8;
      }
      .cls-11 {
        fill: #404041;
        font-family: SegoeUI-Semibold, 'Segoe UI';
        font-size: 11.244px;
        font-weight: 700;
      }

      .cls-12 {
        clip-path: url(#clippath);
      }

      .cls-13 {
        fill: #999;
      }

      .cls-14 {
        fill: #ccc;
      }

      .cls-15 {
        fill: #f2f2f2;
      }
      .cursor-pointer {
        cursor:pointer;
      }
      .buttons-font {
        font-family: Arial-BoldMT, Arial;
        font-size: 20px;
      }
    </style>

  </defs>
  <g>
    <path class="cls-15" d="M24.765,5.158V22.722c0,.626,.508,1.134,1.134,1.134h6.725c.626,0,1.134,.508,1.134,1.134v16.598c0,.626-.508,1.134-1.134,1.134h-1.709c-.626,0-1.134,.508-1.134,1.134v.083c0,.626,.508,1.134,1.134,1.134h1.709c.626,0,1.134,.508,1.134,1.134v11.568c0,.626-.508,1.134-1.134,1.134h-1.709c-.626,0-1.134,.508-1.134,1.134h0c0,.626,.508,1.134,1.134,1.134h1.709c.626,0,1.134,.508,1.134,1.134v10.449c0,.459-.277,.874-.702,1.049l-11.104,4.576c-.425,.175-.702,.589-.702,1.049v3.261c0,.626,.508,1.134,1.134,1.134h10.24c.626,0,1.134,.508,1.134,1.134v4.554c0,.626-.508,1.134-1.134,1.134h-.778c-.626,0-1.134,.508-1.134,1.134v7.907c0,.626,.508,1.134,1.134,1.134h44.142c.626,0,1.134-.508,1.134-1.134v-12.054c0-.626-.508-1.134-1.134-1.134h-.454c-.626,0-1.134,.508-1.134,1.134v1.879c0,.626-.508,1.134-1.134,1.134h-1.312c-.626,0-1.134-.508-1.134-1.134v-4.925c0-.626,.508-1.134,1.134-1.134h4.034c.626,0,1.134-.508,1.134-1.134v-.259c0-.626,.508-1.134,1.134-1.134h1.361c.626,0,1.134-.508,1.134-1.134v-1.944c0-.626-.508-1.134-1.134-1.134h-1.361c-.626,0-1.134-.508-1.134-1.134v-1.102c0-.626-.508-1.134-1.134-1.134h-4.034c-.626,0-1.134-.508-1.134-1.134v-9.901c0-.626,.508-1.134,1.134-1.134h1.733c.626,0,1.134-.508,1.134-1.134h0c0-.626-.508-1.134-1.134-1.134h-1.733c-.626,0-1.134-.508-1.134-1.134v-11.568c0-.626,.508-1.134,1.134-1.134h1.733c.626,0,1.134-.508,1.134-1.134v-.083c0-.626-.508-1.134-1.134-1.134h-1.733c-.626,0-1.134-.508-1.134-1.134V24.99c0-.626,.508-1.134,1.134-1.134h6.799c.626,0,1.134-.508,1.134-1.134V5.158c0-.626-.508-1.134-1.134-1.134H25.899c-.626,0-1.134,.508-1.134,1.134Z"/>
    <rect class="cls-15" x="244.001" y="381.992" width="15.929" height="14.055" rx="3" ry="3"/>
    <rect class="cls-15" x="390.487" y="381.992" width="17.803" height="14.055" rx="3" ry="3"/>
    <rect class="cls-15" x="454.203" y="381.992" width="17.803" height="14.055" rx="3" ry="3"/>
    <rect class="cls-15" x="517.919" y="381.992" width="17.803" height="14.055" rx="3" ry="3"/>
    <rect class="cls-15" x="547.903" y="381.992" width="17.803" height="14.055" rx="3" ry="3"/>
    <rect class="cls-15" x="571.662" y="381.992" width="8.433" height="6.559" rx="2.475" ry="2.475"/>
    <rect class="cls-4" x="130.999" y="396.047" width="34.669" height="45.913" rx="6" ry="6"/>
    <rect class="cls-15" x="26.056" y="329.68" width="51.535" height="23.425" rx="4" ry="4"/>
    <g class="bin" gui-bin-id="5" bin-key="0_0">
      <rect class="cls-9" x="26.09" width="52.472" height="22.488" rx="4" ry="4"/>
      <text class="cls-11" transform="translate(36 15) scale(1.074 1)"><tspan class="bin-label" x="0" y="0"></tspan></text>
    </g>
    <g class="cursor-pointer bin" gui-bin-id="3" bin-key="0_0">
      <rect class="cls-9" x="67.284" y="129.969" width="28.11" height="58.094" rx="4" ry="4"/>
      <text class="cls-11" transform="translate(85.297 174.68) rotate(-90) scale(1.074 1)"><tspan class="bin-label" x="0" y="0"></tspan></text>
    </g>
    <g class="cursor-pointer bin" gui-bin-id="1" bin-key="0_0">
      <rect class="cls-9" x="67.284" y="194.621" width="28.11" height="58.094" rx="4" ry="4"/>
      <text class="cls-11" transform="translate(85.297 238.227) rotate(-90) scale(1.074 1)"><tspan class="bin-label" x="0" y="0"></tspan></text>
    </g>
    <g class="cursor-pointer bin" gui-bin-id="4" bin-key="0_0">
      <rect class="cls-9" x="9.19" y="129.969" width="28.11" height="58.094" rx="4" ry="4"/>
      <text class="cls-11" transform="translate(27.204 175.119) rotate(-90) scale(1.074 1)"><tspan class="bin-label" x="0" y="0"></tspan></text>
    </g>
    <g class="cursor-pointer bin" gui-bin-id="2" bin-key="0_0">
      <rect class="cls-9" x="9.19" y="194.621" width="28.11" height="58.094" rx="4" ry="4"/>
      <text class="cls-11" transform="translate(27.203 239.357) rotate(-90) scale(1.074 1)"><tspan class="bin-label" x="0" y="0"></tspan></text>
    </g>

    <g class="conveyor" gui-conveyor-id="1" conveyor-id="0" data-toggle="tooltip" data-html="true" title="">
      <rect class="cls-8" x="37.392" y="28.504" width="29.8" height="44.177" rx="3" ry="3"/>
      <path class="cls-9 status" d="M64.192,29.504c1.103,0,2,.897,2,2v38.176c0,1.103-.897,2-2,2h-23.8c-1.103,0-2-.897-2-2V31.504c0-1.103,.897-2,2-2h23.8m0-2h-23.8c-2.209,0-4,1.791-4,4v38.176c0,2.209,1.791,4,4,4h23.8c2.209,0,4-1.791,4-4V31.504c0-2.209-1.791-4-4-4h0Z"/>
    </g>
    <g class="conveyor" gui-conveyor-id="2" conveyor-id="0" data-toggle="tooltip" data-html="true" title="">
      <path class="cls-8" d="M41.111,364.749V82.681c0-1.654,1.346-3,3-3h16.362c1.654,0,3,1.346,3,3V364.749h-22.362Z"/>
      <path class="cls-9 status" d="M60.473,80.68c1.103,0,2,.897,2,2V363.748h-20.362V82.68c0-1.103,.897-2,2-2h16.362m0-2h-16.362c-2.209,0-4,1.791-4,4V365.748h24.362V82.68c0-2.209-1.791-4-4-4h0Z"/>
    </g>
    <g class="conveyor" gui-conveyor-id="3" conveyor-id="0" data-toggle="tooltip" data-html="true" title="">
      <path class="cls-8" d="M98.141,436.97c-35.726-.532-64.689-29.496-65.222-65.222h36.191c.519,15.774,13.256,28.511,29.03,29.03v36.192Z"/>
      <path class="cls-9 status" d="M68.158,372.748c.992,15.53,13.454,27.991,28.983,28.983v34.216c-34.381-1.041-62.158-28.819-63.199-63.199h34.216m1.936-2H31.912c0,37.13,30.1,67.229,67.229,67.229v-38.183c-16.042,0-29.047-13.005-29.047-29.047h0Z"/>
    </g>
    <g class="conveyor" gui-conveyor-id="4" conveyor-id="0" data-toggle="tooltip" data-html="true" title="">
      <path class="cls-8" d="M105.141,434.401v-30.795h53.653c1.654,0,3,1.346,3,3v24.795c0,1.654-1.346,3-3,3h-53.653Z"/>
      <path class="cls-9 status" d="M158.794,404.606c1.103,0,2,.897,2,2v24.795c0,1.103-.897,2-2,2h-52.653v-28.795h52.653m0-2h-54.653v32.795h54.653c2.209,0,4-1.791,4-4v-24.795c0-2.209-1.791-4-4-4h0Z"/>
    </g>
    <g class="conveyor" gui-conveyor-id="5" conveyor-id="0" data-toggle="tooltip" data-html="true" title="">
      <rect class="cls-8" x="168.794" y="403.606" width="11.118" height="30.795" rx="3" ry="3"/>
      <path class="cls-9 status" d="M176.912,404.606c1.103,0,2,.897,2,2v24.795c0,1.103-.897,2-2,2h-5.118c-1.103,0-2-.897-2-2v-24.795c0-1.103,.897-2,2-2h5.118m0-2h-5.118c-2.209,0-4,1.791-4,4v24.795c0,2.209,1.791,4,4,4h5.118c2.209,0,4-1.791,4-4v-24.795c0-2.209-1.791-4-4-4h0Z"/>
    </g>
    <g class="conveyor" gui-conveyor-id="6" conveyor-id="0" data-toggle="tooltip" data-html="true" title="">
      <rect class="cls-8" x="186.912" y="403.606" width="11.118" height="30.795" rx="3" ry="3"/>
      <path class="cls-9 status" d="M195.03,404.606c1.103,0,2,.897,2,2v24.795c0,1.103-.897,2-2,2h-5.118c-1.103,0-2-.897-2-2v-24.795c0-1.103,.897-2,2-2h5.118m0-2h-5.118c-2.209,0-4,1.791-4,4v24.795c0,2.209,1.791,4,4,4h5.118c2.209,0,4-1.791,4-4v-24.795c0-2.209-1.791-4-4-4h0Z"/>
    </g>
    <g class="conveyor" gui-conveyor-id="7" conveyor-id="0" data-toggle="tooltip" data-html="true" title="">
      <rect class="cls-8" x="205.03" y="403.606" width="11.118" height="30.795" rx="3" ry="3"/>
      <path class="cls-9 status" d="M213.148,404.606c1.103,0,2,.897,2,2v24.795c0,1.103-.897,2-2,2h-5.118c-1.103,0-2-.897-2-2v-24.795c0-1.103,.897-2,2-2h5.118m0-2h-5.118c-2.209,0-4,1.791-4,4v24.795c0,2.209,1.791,4,4,4h5.118c2.209,0,4-1.791,4-4v-24.795c0-2.209-1.791-4-4-4h0Z"/>
    </g>
    <g class="conveyor" gui-conveyor-id="8" conveyor-id="0" data-toggle="tooltip" data-html="true" title="">
      <rect class="cls-8" x="223.148" y="403.606" width="11.118" height="30.795" rx="3" ry="3"/>
      <path class="cls-9 status" d="M231.266,404.606c1.103,0,2,.897,2,2v24.795c0,1.103-.897,2-2,2h-5.118c-1.103,0-2-.897-2-2v-24.795c0-1.103,.897-2,2-2h5.118m0-2h-5.118c-2.209,0-4,1.791-4,4v24.795c0,2.209,1.791,4,4,4h5.118c2.209,0,4-1.791,4-4v-24.795c0-2.209-1.791-4-4-4h0Z"/>
    </g>
    <g class="conveyor" gui-conveyor-id="9" conveyor-id="0" data-toggle="tooltip" data-html="true" title="">
      <rect class="cls-8" x="241.262" y="393.541" width="100.132" height="42.976" rx="3" ry="3"/>
      <path class="cls-9 status" d="M338.394,394.541c1.103,0,2,.897,2,2v36.976c0,1.103-.897,2-2,2h-94.132c-1.103,0-2-.897-2-2v-36.976c0-1.103,.897-2,2-2h94.132m0-2h-94.132c-2.209,0-4,1.791-4,4v36.976c0,2.209,1.791,4,4,4h94.132c2.209,0,4-1.791,4-4v-36.976c0-2.209-1.791-4-4-4h0Z"/>
    </g>
    <g class="conveyor" gui-conveyor-id="10" conveyor-id="0" data-toggle="tooltip" data-html="true" title="">
      <rect class="cls-8" x="348.394" y="388.241" width="219.131" height="53.576" rx="3" ry="3"/>
      <path class="cls-9 status" d="M564.524,389.241c1.103,0,2,.897,2,2v47.576c0,1.103-.897,2-2,2h-213.131c-1.103,0-2-.897-2-2v-47.576c0-1.103,.897-2,2-2h213.131m0-2h-213.131c-2.209,0-4,1.791-4,4v47.576c0,2.209,1.791,4,4,4h213.131c2.209,0,4-1.791,4-4v-47.576c0-2.209-1.791-4-4-4h0Z"/>
    </g>

    <g>
      <path class="cls-7" d="M558.302,412.445h33.28c1.159,0,2.1,.941,2.1,2.1v.711h-37.48v-.711c0-1.159,.941-2.1,2.1-2.1Z" transform="translate(161.092 988.792) rotate(-90)"/>
      <rect class="cls-7" x="562.761" y="412.445" width="37.48" height="2.811" transform="translate(167.651 995.351) rotate(-90)"/>
      <rect class="cls-7" x="569.32" y="412.445" width="37.48" height="2.811" transform="translate(174.209 1001.91) rotate(-90)"/>
      <rect class="cls-7" x="575.879" y="412.445" width="37.48" height="2.811" transform="translate(180.768 1008.469) rotate(-90)"/>
      <rect class="cls-7" x="582.438" y="412.445" width="37.48" height="2.811" transform="translate(187.327 1015.027) rotate(-90)"/>
      <rect class="cls-7" x="588.997" y="412.445" width="37.48" height="2.811" transform="translate(193.886 1021.586) rotate(-90)"/>
      <rect class="cls-7" x="595.555" y="412.445" width="37.48" height="2.811" transform="translate(200.445 1028.145) rotate(-90)"/>
      <path class="cls-7" d="M601.802,412.445h37.48v.711c0,1.159-.941,2.1-2.1,2.1h-33.28c-1.159,0-2.1-.941-2.1-2.1v-.711h0Z" transform="translate(206.692 1034.392) rotate(-90)"/>
    </g>
    <rect class="cls-15" x="126.314" y="364.189" width="36.543" height="9.37" rx="3" ry="3"/>
    <rect class="cls-15" x="170.605" y="377.307" width="11.244" height="9.37" rx="3" ry="3"/>
    <g>
      <polyline class="cls-3" points="162.572 459.763 158.449 463.511 152.265 457.889"/>
      <rect class="cls-15" x="116.944" y="451.33" width="36.543" height="9.37" rx="3" ry="3"/>
      <rect class="cls-8" x="161.92" y="452.267" width="2.811" height="15.929" rx="1.061" ry="1.061"/>
    </g>
    <g class="cls-12">
      <g>
        <line class="cls-6" x1="240.261" y1="396.821" x2="342.394" y2="396.821"/>
        <line class="cls-2" x1="240.261" y1="400.796" x2="342.394" y2="400.796"/>
        <line class="cls-6" x1="240.261" y1="404.771" x2="342.394" y2="404.771"/>
        <line class="cls-2" x1="240.261" y1="408.746" x2="342.394" y2="408.746"/>
        <line class="cls-6" x1="240.261" y1="412.721" x2="342.394" y2="412.721"/>
        <line class="cls-2" x1="240.261" y1="416.696" x2="342.394" y2="416.696"/>
        <line class="cls-6" x1="240.261" y1="420.671" x2="342.394" y2="420.671"/>
        <line class="cls-2" x1="240.261" y1="424.646" x2="342.394" y2="424.646"/>
        <line class="cls-6" x1="240.261" y1="428.621" x2="342.394" y2="428.621"/>
        <line class="cls-2" x1="240.261" y1="432.596" x2="342.394" y2="432.596"/>
      </g>
    </g>
    <g>
      <path class="cls-13" d="M350.039,396.156h215.829v-4.268c0-1.105-.895-2-2-2h-211.829c-1.105,0-2,.895-2,2v4.268Z"/>
      <path class="cls-13" d="M350.039,433.893h215.829v4.268c0,1.105-.895,2-2,2h-211.829c-1.105,0-2-.895-2-2v-4.268Z"/>
    </g>
  </g>
  <g transform="translate(18 19)" class="photoeye" gui-input-id="1" input-id="0" data-toggle="tooltip" data-html="true" title="">
    <polygon class="cls-14 status" points="12 6 0 0 0 12 12 6"/>
    <rect class="cls-14 status" x="14" y="5" width="3.2" height="3.2"/>
    <rect class="cls-14 status" x="22" y="5" width="3.2" height="3.2"/>
    <rect class="cls-14 status" x="30" y="5" width="3.2" height="3.2"/>
    <rect class="cls-14 status" x="38" y="5" width="3.2" height="3.2"/>
    <rect class="cls-14 status" x="46" y="5" width="3.2" height="3.2"/>
    <rect class="cls-14 status" x="54" y="0" width="3.6" height="12"/>
  </g>
  <g transform="translate(18 80)" class="photoeye" gui-input-id="2" input-id="0" data-toggle="tooltip" data-html="true" title="">
    <polygon class="cls-14 status" points="12 6 0 0 0 12 12 6"/>
    <rect class="cls-14 status" x="14" y="5" width="3.2" height="3.2"/>
    <rect class="cls-14 status" x="22" y="5" width="3.2" height="3.2"/>
    <rect class="cls-14 status" x="30" y="5" width="3.2" height="3.2"/>
    <rect class="cls-14 status" x="38" y="5" width="3.2" height="3.2"/>
    <rect class="cls-14 status" x="46" y="5" width="3.2" height="3.2"/>
    <rect class="cls-14 status" x="54" y="0" width="3.6" height="12"/>
  </g>
  <g transform="translate(18 362)" class="photoeye" gui-input-id="3" input-id="0" data-toggle="tooltip" data-html="true" title="">
    <polygon class="cls-14 status" points="12 6 0 0 0 12 12 6"/>
    <rect class="cls-14 status" x="14" y="5" width="3.2" height="3.2"/>
    <rect class="cls-14 status" x="22" y="5" width="3.2" height="3.2"/>
    <rect class="cls-14 status" x="30" y="5" width="3.2" height="3.2"/>
    <rect class="cls-14 status" x="38" y="5" width="3.2" height="3.2"/>
    <rect class="cls-14 status" x="46" y="5" width="3.2" height="3.2"/>
    <rect class="cls-14 status" x="54" y="0" width="3.6" height="12"/>
  </g>
  <g transform="translate(95 452) rotate(270)" class="photoeye" gui-input-id="4" input-id="0" data-toggle="tooltip" data-html="true" title="">
    <polygon class="cls-14 status" points="12 6 0 0 0 12 12 6"/>
    <rect class="cls-14 status" x="14" y="5" width="3.2" height="3.2"/>
    <rect class="cls-14 status" x="22" y="5" width="3.2" height="3.2"/>
    <rect class="cls-14 status" x="30" y="5" width="3.2" height="3.2"/>
    <rect class="cls-14 status" x="38" y="5" width="3.2" height="3.2"/>
    <rect class="cls-14 status" x="46" y="5" width="3.2" height="3.2"/>
    <rect class="cls-14 status" x="54" y="0" width="3.6" height="12"/>
  </g>
  <g transform="translate(139 452) rotate(270)" class="photoeye" gui-input-id="6" input-id="0" data-toggle="tooltip" data-html="true" title="">
    <polygon class="cls-14 status" points="12 6 0 0 0 12 12 6"/>
    <rect class="cls-14 status" x="14" y="5" width="3.2" height="3.2"/>
    <rect class="cls-14 status" x="22" y="5" width="3.2" height="3.2"/>
    <rect class="cls-14 status" x="30" y="5" width="3.2" height="3.2"/>
    <rect class="cls-14 status" x="38" y="5" width="3.2" height="3.2"/>
    <rect class="cls-14 status" x="46" y="5" width="3.2" height="3.2"/>
    <rect class="cls-14 status" x="54" y="0" width="3.6" height="12"/>
  </g>
  <g transform="translate(159 452) rotate(270)" class="photoeye" gui-input-id="7" input-id="0" data-toggle="tooltip" data-html="true" title="">
    <polygon class="cls-14 status" points="12 6 0 0 0 12 12 6"/>
    <rect class="cls-14 status" x="14" y="5" width="3.2" height="3.2"/>
    <rect class="cls-14 status" x="22" y="5" width="3.2" height="3.2"/>
    <rect class="cls-14 status" x="30" y="5" width="3.2" height="3.2"/>
    <rect class="cls-14 status" x="38" y="5" width="3.2" height="3.2"/>
    <rect class="cls-14 status" x="46" y="5" width="3.2" height="3.2"/>
    <rect class="cls-14 status" x="54" y="0" width="3.6" height="12"/>
  </g>
  <g transform="translate(177 452) rotate(270)" class="photoeye" gui-input-id="8" input-id="0" data-toggle="tooltip" data-html="true" title="">
    <polygon class="cls-14 status" points="12 6 0 0 0 12 12 6"/>
    <rect class="cls-14 status" x="14" y="5" width="3.2" height="3.2"/>
    <rect class="cls-14 status" x="22" y="5" width="3.2" height="3.2"/>
    <rect class="cls-14 status" x="30" y="5" width="3.2" height="3.2"/>
    <rect class="cls-14 status" x="38" y="5" width="3.2" height="3.2"/>
    <rect class="cls-14 status" x="46" y="5" width="3.2" height="3.2"/>
    <rect class="cls-14 status" x="54" y="0" width="3.6" height="12"/>
  </g>
  <g transform="translate(195 452) rotate(270)" class="photoeye" gui-input-id="9" input-id="0" data-toggle="tooltip" data-html="true" title="">
    <polygon class="cls-14 status" points="12 6 0 0 0 12 12 6"/>
    <rect class="cls-14 status" x="14" y="5" width="3.2" height="3.2"/>
    <rect class="cls-14 status" x="22" y="5" width="3.2" height="3.2"/>
    <rect class="cls-14 status" x="30" y="5" width="3.2" height="3.2"/>
    <rect class="cls-14 status" x="38" y="5" width="3.2" height="3.2"/>
    <rect class="cls-14 status" x="46" y="5" width="3.2" height="3.2"/>
    <rect class="cls-14 status" x="54" y="0" width="3.6" height="12"/>
  </g>
  <g transform="translate(213 452) rotate(270)" class="photoeye" gui-input-id="10" input-id="0" data-toggle="tooltip" data-html="true" title="">
    <polygon class="cls-14 status" points="12 6 0 0 0 12 12 6"/>
    <rect class="cls-14 status" x="14" y="5" width="3.2" height="3.2"/>
    <rect class="cls-14 status" x="22" y="5" width="3.2" height="3.2"/>
    <rect class="cls-14 status" x="30" y="5" width="3.2" height="3.2"/>
    <rect class="cls-14 status" x="38" y="5" width="3.2" height="3.2"/>
    <rect class="cls-14 status" x="46" y="5" width="3.2" height="3.2"/>
    <rect class="cls-14 status" x="54" y="0" width="3.6" height="12"/>
  </g>
  <g transform="translate(231 452) rotate(270)" class="photoeye" gui-input-id="11" input-id="0" data-toggle="tooltip" data-html="true" title="">
    <polygon class="cls-14 status" points="12 6 0 0 0 12 12 6"/>
    <rect class="cls-14 status" x="14" y="5" width="3.2" height="3.2"/>
    <rect class="cls-14 status" x="22" y="5" width="3.2" height="3.2"/>
    <rect class="cls-14 status" x="30" y="5" width="3.2" height="3.2"/>
    <rect class="cls-14 status" x="38" y="5" width="3.2" height="3.2"/>
    <rect class="cls-14 status" x="46" y="5" width="3.2" height="3.2"/>
    <rect class="cls-14 status" x="54" y="0" width="3.6" height="12"/>
  </g>
  <g transform="translate(338 452) rotate(270)" class="photoeye" gui-input-id="12" input-id="0" data-toggle="tooltip" data-html="true" title="">
    <polygon class="cls-14 status" points="12 6 0 0 0 12 12 6"/>
    <rect class="cls-14 status" x="14" y="5" width="3.2" height="3.2"/>
    <rect class="cls-14 status" x="22" y="5" width="3.2" height="3.2"/>
    <rect class="cls-14 status" x="30" y="5" width="3.2" height="3.2"/>
    <rect class="cls-14 status" x="38" y="5" width="3.2" height="3.2"/>
    <rect class="cls-14 status" x="46" y="5" width="3.2" height="3.2"/>
    <rect class="cls-14 status" x="54" y="5" width="3.2" height="3.2"/>
    <rect class="cls-14 status" x="62" y="5" width="3.2" height="3.2"/>
    <rect class="cls-14 status" x="70" y="0" width="3.6" height="12"/>
  </g>
  <g transform="translate(564 452) rotate(270)" class="photoeye" gui-input-id="5" input-id="0" data-toggle="tooltip" data-html="true" title="">
    <polygon class="cls-14 status" points="12 6 0 0 0 12 12 6"/>
    <rect class="cls-14 status" x="14" y="5" width="3.2" height="3.2"/>
    <rect class="cls-14 status" x="22" y="5" width="3.2" height="3.2"/>
    <rect class="cls-14 status" x="30" y="5" width="3.2" height="3.2"/>
    <rect class="cls-14 status" x="38" y="5" width="3.2" height="3.2"/>
    <rect class="cls-14 status" x="46" y="5" width="3.2" height="3.2"/>
    <rect class="cls-14 status" x="54" y="5" width="3.2" height="3.2"/>
    <rect class="cls-14 status" x="62" y="5" width="3.2" height="3.2"/>
    <rect class="cls-14 status" x="70" y="0" width="3.6" height="12"/>
  </g>
  <g transform="translate(18 60)" class="photoeye" gui-input-id="13" input-id="0" data-toggle="tooltip" data-html="true" title="">
    <polygon class="cls-14 status" points="12 6 0 0 0 12 12 6"/>
    <rect class="cls-14 status" x="14" y="5" width="3.2" height="3.2"/>
    <rect class="cls-14 status" x="22" y="5" width="3.2" height="3.2"/>
    <rect class="cls-14 status" x="30" y="5" width="3.2" height="3.2"/>
    <rect class="cls-14 status" x="38" y="5" width="3.2" height="3.2"/>
    <rect class="cls-14 status" x="46" y="5" width="3.2" height="3.2"/>
    <rect class="cls-14 status" x="54" y="0" width="3.6" height="12"/>
  </g>
</svg>